<?xml version="1.0" encoding="UTF-8"?>
<svg id="Livello_2" data-name="Livello 2" xmlns="http://www.w3.org/2000/svg" viewBox="0 0 163.74 170.55">
  <g id="Livello_1-2" data-name="Livello 1">
    <g>
      <path d="M111.5,27.8l6.03,2.99c8.59-1.92,20.45-9.75,28.4-2.88,2.54,2.19,13.04,20.86,15.11,24.95,7.96,15.71-5.17,18.87-13.98,28.97l-.25,6.72,14.44,13.62c1.83,3.02,2.94,6.01,2.29,9.62-.76,4.21-12.31,23.78-15.34,28.07-8.28,11.73-20.58,1.88-31.4.09l-5.44,3.12c-2.88,8.54-1.97,23.3-12.36,26.44-4.49,1.35-25.82,1.15-31.32.66-13.8-1.24-11.62-16.56-15.04-25.89-.49-1.35-3.79-3.5-5.15-3.85-4.4-1.14-16.24,5.82-22.66,5.22s-8.36-4.3-11.37-9.1c-2.61-4.15-12.85-20.93-13.34-24.58-1.53-11.22,10.54-15.9,16.66-23.17l-.2-7.26c-2.76-2.32-5.98-4.95-8.53-7.44-6.33-6.2-10.53-10.35-6.25-19.74,2.01-4.42,12.58-22.96,15.47-25.95,7.56-7.8,20.49.43,29.05,2.39l6.04-2.98c2.91-9.08,1.75-24.67,13.56-27.11,4.73-.98,24.95-.8,30.22-.22,13.52,1.47,11.89,17.61,15.34,27.33ZM93.34,15.51l-23.38-.06c-1.23,5.77-1.87,13.05-3.64,18.57-.49,1.51-1.4,2.88-2.4,4.08-4.11,1.49-11.31,7.86-15.16,8.29-4.33.49-21.25-6.65-22.17-5.96l-10.91,19.68c.13,1.7,15.56,12.86,16.33,16.99.41,2.2.27,15.14-.36,17.06-1.04,3.2-7.51,7.84-10.11,10.36-2,1.94-3.97,3.95-5.86,5.99l10.91,19.68c.83.6,16.79-5.58,19.71-5.92,2.14-.24,3.48.15,5.36,1.05,2.2,1.05,10.3,5.62,12,6.97,3.84,3.04,5.05,17.82,6.31,22.88l23.48-.21,4.7-20.26c.36-.94,1.23-1.86,2.01-2.48,1.75-1.39,9.07-5.4,11.39-6.57,2.74-1.38,3.62-1.8,6.85-1.19,2.89.54,16.88,6,18.14,5.7l11.29-19.66c0-.8-2.06-2.61-2.74-3.25-2.91-2.77-11.58-9.46-12.94-12.52-1.26-2.83-.31-8.28-.28-11.7.01-1.43-.56-2.65-.54-3.94.06-3.45,2.52-5.55,4.74-7.77,1.55-1.55,11.46-9.92,11.69-10.82l-10.68-19.63-.89-.41c-6.07,1.12-16.13,6.86-22.04,5.88-3.39-.56-9.43-6.68-13.42-7.54-1.29-.9-2.15-1.8-2.7-3.29-.99-2.68-3.82-19.46-4.69-20.02Z"/>
      <path d="M78.84,55.52c35.63-3.8,45.98,48.83,11.08,58.49-41.48,11.48-53.35-53.98-11.08-58.49ZM78.81,70.46c-17.71,2.8-15.25,32.77,5.74,29.69,18.5-2.71,15.37-33.03-5.74-29.69Z"/>
    </g>
  </g>
</svg>