<?xml version="1.0" encoding="UTF-8"?>
<svg id="Livello_2" data-name="Livello 2" xmlns="http://www.w3.org/2000/svg" viewBox="0 0 179.79 159.65">
  <g id="Livello_1-2" data-name="Livello 1">
    <g>
      <path d="M56.88.1l65.78-.1c10.01,1.95,16.47,9.49,17.24,19.68l-.03,120.74c-.9,10.03-7.69,17.67-17.69,19.23l-64.9-.03c-8.77-1.66-15.85-8.23-17.24-17.19l.02-125.73C41.74,8.14,48.4,1.81,56.88.1ZM58.85,15.04c-1.89.69-3.13,1.71-3.83,3.65l.08,122.67c1,1.78,2.15,2.79,4.17,3.31l60.42.02c3.41-.35,4.95-2.45,5.24-5.74V20.68c-.29-3.29-1.83-5.39-5.24-5.74l-60.83.1Z"/>
      <path d="M158.18,40c2.58-.45,4.85.34,6.91,1.89,3.01,2.27,12.37,12.1,13.61,15.33,2.14,5.58.82,10.36-2.88,14.87-1.12,1.37-7.28,6.76-7.49,7.5-.12.4.07.48.23.73,1.24,1.94,5.02,4.69,6.76,6.71,4.16,4.83,6.02,10.38,2.91,16.4-1.57,3.04-10.26,12.12-13.14,14.3-7.64,5.78-16.07-1.97-11.48-9.98l10.21-10.26-.23-.73c-5.6-5.78-12.26-10.1-11.24-19.19.32-2.84,2.16-5.39,3.98-7.5,1.1-1.28,7.3-6.83,7.49-7.5.09-.3.02-.54-.23-.73l-9.99-9.98c-2.81-4.38-.86-10.94,4.57-11.87Z"/>
      <path d="M18.44,40c3.27-.58,7.33,1.11,8.42,4.37s.54,5.83-1.54,8.49c-1.34,1.72-8.96,8.41-9.21,9.27-.12.4.07.48.23.73,1.32,2.06,5.18,4.8,6.98,6.99,1.63,1.99,3.92,5.68,4.26,8.22.51,3.83-1.58,8.55-3.98,11.48-1.12,1.37-7.28,6.76-7.49,7.5-.09.3-.02.54.23.73,3.43,4.23,12.22,9.49,11.15,15.61-.97,5.57-7.53,8.29-12.15,4.84-2.57-1.92-9.88-9.39-11.95-12-4.57-5.77-4.42-12.54.22-18.2,1.18-1.44,7.77-7.23,7.99-8,.09-.3.02-.54-.23-.73C5.79,73.52-1.35,68.88.22,59.7c.34-1.97,2.1-5.01,3.39-6.59,1.75-2.13,11.05-11.5,13-12.45.46-.22,1.36-.59,1.83-.67Z"/>
      <path d="M75.83,114.82h27.77c8.55,2.4,8.23,12.87-.41,14.87l-27.36-.09c-7.79-1.92-7.8-12.86,0-14.78Z"/>
    </g>
  </g>
</svg>