<?xml version="1.0" encoding="UTF-8"?>
<svg id="Livello_2" data-name="Livello 2" xmlns="http://www.w3.org/2000/svg" viewBox="0 0 139.77 159.68">
  <g id="Livello_1-2" data-name="Livello 1">
    <g>
      <path d="M17.36.12l103.67-.12c11.23,1.43,17.92,9.59,18.74,20.68v118.79c-.58,10.78-8.39,19.28-19.21,20.21H18.71c-9.96-.85-17.54-8.32-18.71-18.21V17.21C1.64,8.21,8.37,1.6,17.36.12ZM18.85,15.08c-3.4.61-4.1,3.54-4.38,6.6v115.79c.35,2.67.48,5.46,3.14,6.84l101.95.4c3.1.02,5.28-2.78,5.24-5.74V20.68c.02-3.38-2.39-5.76-5.74-5.74l-100.21.14Z"/>
      <path d="M65.79,45.05c39.35-3.6,63.33,42.22,39.02,72.94-19.73,24.92-59.66,21.41-74.61-6.71s3.33-63.27,35.59-66.23ZM98.28,99.74c10.45-37.93-40.61-56.37-56.83-20.65.34.49.65.65,1.23.75,4.56.78,7.63.07,12.57,1.9,14.45,5.35,25.83,20.51,43.03,18Z"/>
      <path d="M56.82,25.06c9.84-.59,10.31,14.07,1.34,14.88-9.94.9-11.38-14.27-1.34-14.88Z"/>
      <path d="M31.86,25.06c9.72-.58,10.21,14.08,1.34,14.88-10,.89-11.32-14.28-1.34-14.88Z"/>
    </g>
  </g>
</svg>