<?xml version="1.0" encoding="UTF-8"?>
<svg id="Livello_2" data-name="Livello 2" xmlns="http://www.w3.org/2000/svg" viewBox="0 0 139.74 159.68">
  <g id="Livello_1-2" data-name="Livello 1">
    <g>
      <path d="M17.36.12l103.65-.12c11.23,1.43,17.92,9.59,18.73,20.68v118.79c-.58,10.78-8.38,19.28-19.21,20.21H18.71c-9.96-.85-17.54-8.32-18.71-18.21V17.21C1.64,8.21,8.37,1.6,17.36.12ZM35.27,35.25c6.69-7.18-3.69-17.39-10.58-10.83-7.46,7.12,3.75,18.15,10.58,10.83ZM57.76,22.57c-1.89.39-4.3,2.75-4.96,4.51-2.59,6.88,5.09,13.32,10.84,9.34,7.32-5.07,2.71-15.63-5.88-13.86ZM37.61,126.56c23.07,23.62,63.7,14.2,74.54-16.67,12.91-36.76-23.86-71.49-59.92-56.43-29.28,12.22-36.76,50.43-14.61,73.1Z"/>
      <path d="M98.56,99.79c1.14.28.1,2.53-.12,3.38-8.44,31.64-57.16,26.88-58.52-6.6-.13-3.26,1.38-14.16,3.75-16.24,1.45-1.27,8.83.41,10.87,1.11,10.72,3.66,25.92,18.35,36.53,18.35h7.48Z"/>
    </g>
  </g>
</svg>